<svg id="Layer_1" enable-background="new 0 0 512.001 512.001" height="512" viewBox="0 0 512.001 512.001" width="512" xmlns="http://www.w3.org/2000/svg"><path d="m488.518 147.473c-8.438-26.613-24.794-49.528-47.299-66.268-10.012-7.447-20.851-13.361-32.269-17.666l22.396-17.207c3.793-2.914 5.968-7.462 5.857-12.243s-2.496-9.224-6.42-11.958c-21.348-14.874-46.424-22.533-72.577-22.115-26.669.416-51.975 9.247-73.181 25.54-11.559 8.881-21.307 19.673-28.951 31.741-7.638-12.012-17.416-22.767-29.097-31.741-21.206-16.293-46.511-25.124-73.181-25.54-26.132-.421-51.229 7.239-72.577 22.115-3.924 2.734-6.309 7.177-6.42 11.958s2.064 9.329 5.857 12.243l22.395 17.207c-11.418 4.305-22.257 10.219-32.269 17.667-22.505 16.739-38.861 39.654-47.299 66.268-1.446 4.56-.63 9.535 2.194 13.394 2.825 3.859 7.321 6.141 12.104 6.141h64.011c4.947 0 9.576-2.439 12.373-6.52l5.765-8.411 19.118 11.344c-1.504 1.343-2.988 2.716-4.425 4.153-15.99 15.989-26.175 36.237-29.454 58.554-3.212 21.863.443 43.745 10.571 63.277 2.202 4.246 6.296 7.188 11.022 7.919.766.119 1.532.177 2.294.177 3.947 0 7.771-1.56 10.606-4.394l64.112-64.111-28.688 266.398c-.456 4.233.909 8.461 3.753 11.629 2.845 3.168 6.902 4.978 11.16 4.978h132c4.258 0 8.315-1.81 11.16-4.978s4.209-7.396 3.753-11.629l-14.152-131.388c-.027-.415-14.552-135.086-14.552-135.086l64.186 64.186c2.834 2.835 6.659 4.394 10.606 4.394.762 0 1.529-.058 2.294-.177 4.727-.731 8.821-3.673 11.022-7.919 10.128-19.532 13.783-41.414 10.571-63.277-3.279-22.316-13.464-42.564-29.454-58.554-2.009-2.009-4.086-3.926-6.225-5.75l22.061-14.444 9.782 13.45c2.822 3.882 7.332 6.178 12.131 6.178h59.037c4.783 0 9.279-2.281 12.104-6.141 2.825-3.858 3.641-8.834 2.195-13.394zm-185.216-98.127c26.668-20.49 61.365-24.846 91.503-12.771l-22.943 17.628c-.477.366-.917.761-1.337 1.171-2.745-.168-5.501-.278-8.275-.278-28.696 0-56.003 9.029-78.969 26.11-3.504 2.606-6.84 5.379-10.039 8.275 6.131-15.683 16.432-29.665 30.06-40.135zm-70.539 190.655h46.466l4.309 40h-55.082zm-15.076 140h76.623l4.309 40h-85.24zm3.23-30 4.307-40h61.544l4.309 40zm-103.721-313.426c30.136-12.072 64.836-7.718 91.503 12.771 13.839 10.633 24.16 24.563 30.235 40.296-3.252-2.955-6.647-5.781-10.215-8.435-22.965-17.081-50.272-26.11-78.969-26.11-2.715 0-5.413.107-8.101.268zm-14.068 86.952-9.24 13.48h-33.324c17.881-31.722 51.557-51.912 89.186-51.912s71.305 20.19 89.186 51.912h-85.613l-30.169-17.9c-6.797-4.031-15.557-2.098-20.026 4.42zm32.14 131.55c-4.483-23.687 2.796-48.518 20.568-66.29 13.532-13.533 31.156-20.974 49.252-21.779h6.723c3.446.16 6.893.563 10.316 1.211zm120.761-78.335 18.579 18.579c-.033.753 1.389 14.68 1.389 14.68h-40.003s.964-12.11.55-13.773zm-49.326 305.259 3.446-32h91.702l3.447 32zm170.087-226.924-86.859-86.858c3.468-.657 6.96-1.054 10.451-1.211h6.605c18.089.809 35.707 8.252 49.234 21.779 17.772 17.772 25.052 42.603 20.569 66.29zm46.031-118.069-13.689-18.822c-4.704-6.47-13.657-8.109-20.348-3.727l-34.439 22.549h-81.281c17.881-31.722 51.557-51.912 89.186-51.912s71.305 20.19 89.186 51.912z"/></svg>